<svg id="Calque_1" data-name="Calque 1" xmlns="http://www.w3.org/2000/svg" viewBox="0 0 771.63 514.05"><path d="M773.53,503.16a8.13,8.13,0,0,1,7.74-8.12V467.75a8.13,8.13,0,0,1,0-16.24V420.88h0a7.49,7.49,0,0,1-7.08-3.94c-3.17-6.18,1.24-12.34,7.08-12.34h0V59.33A8.13,8.13,0,0,1,770,53.44a8.14,8.14,0,0,1,8-9.67,8,8,0,0,1,3.32.71v-31H761.13a8.14,8.14,0,0,1-12.69,0H734.62a8.14,8.14,0,0,1-12.69,0H708.11a8.14,8.14,0,0,1-12.69,0H681.59a8.13,8.13,0,0,1-12.68,0H655.08a8.13,8.13,0,0,1-12.68,0H578.57a8.13,8.13,0,0,1-12.68,0H552.06a8.13,8.13,0,0,1-12.68,0H525.55a8.13,8.13,0,0,1-12.68,0H499a8.14,8.14,0,0,1-12.69,0H472.53a8.14,8.14,0,0,1-12.69,0H446a8.14,8.14,0,0,1-12.69,0H419.5a8.13,8.13,0,0,1-12.68,0H393a8.13,8.13,0,0,1-12.68,0H366.48a8.13,8.13,0,0,1-12.68,0H340a8.14,8.14,0,0,1-12.69,0H313.46a8.14,8.14,0,0,1-12.69,0H287a8.14,8.14,0,0,1-12.69,0H260.44a8.14,8.14,0,0,1-12.69,0H9.65v514H781.27c0-9-.2-5.84-.2-16.24A8.13,8.13,0,0,1,773.53,503.16ZM267.35,38.28a8.14,8.14,0,1,1,8.14-8.14A8.13,8.13,0,0,1,267.35,38.28ZM775.72,436.19a8.14,8.14,0,1,1-8.14-8.15A8.14,8.14,0,0,1,775.72,436.19Zm-23-315a8.15,8.15,0,1,1-8.15-8.14A8.14,8.14,0,0,1,752.75,121.21ZM736.46,75.67a8.15,8.15,0,1,1,8.14,8.15A8.15,8.15,0,0,1,736.46,75.67ZM386.65,135.84a8.14,8.14,0,1,1-8.14,8.14A8.13,8.13,0,0,1,386.65,135.84Zm-13.21-6.49a8.14,8.14,0,1,1,8.14-8.14A8.14,8.14,0,0,1,373.44,129.35Zm92.75,51a8.15,8.15,0,1,1-8.15,8.14A8.15,8.15,0,0,1,466.19,180.3ZM453,173.42a8.14,8.14,0,1,1,8.14-8.14A8.13,8.13,0,0,1,453,173.42Zm18.37-8.14a8.14,8.14,0,1,1,8.14,8.14A8.14,8.14,0,0,1,471.35,165.28Zm21.35,15a8.15,8.15,0,1,1-8.14,8.14A8.15,8.15,0,0,1,492.7,180.3Zm5.16-15a8.14,8.14,0,1,1,8.14,8.14A8.14,8.14,0,0,1,497.86,165.28Zm21.35,15a8.15,8.15,0,1,1-8.14,8.14A8.15,8.15,0,0,1,519.21,180.3Zm5.16-15a8.14,8.14,0,1,1,8.14,8.14A8.15,8.15,0,0,1,524.37,165.28Zm8.09,36.79a8.14,8.14,0,1,1-8.14,8.14A8.14,8.14,0,0,1,532.46,202.07Zm5.12-13.63a8.14,8.14,0,1,1,8.14,8.15A8.14,8.14,0,0,1,537.58,188.44Zm13.3-23.16a8.14,8.14,0,1,1,8.14,8.14A8.15,8.15,0,0,1,550.88,165.28Zm8.1,36.79a8.14,8.14,0,1,1-8.15,8.14A8.15,8.15,0,0,1,559,202.07Zm5.11-13.63a8.14,8.14,0,1,1,8.14,8.15A8.15,8.15,0,0,1,564.09,188.44Zm13.3-23.16a8.15,8.15,0,1,1,8.15,8.14A8.15,8.15,0,0,1,577.39,165.28Zm8.1,36.79a8.14,8.14,0,1,1-8.14,8.14A8.15,8.15,0,0,1,585.49,202.07Zm5.11-13.63a8.14,8.14,0,1,1,8.14,8.15A8.15,8.15,0,0,1,590.6,188.44Zm13.31-23.16a8.14,8.14,0,1,1,8.14,8.14A8.14,8.14,0,0,1,603.91,165.28ZM612,202.07a8.14,8.14,0,1,1-8.14,8.14A8.15,8.15,0,0,1,612,202.07Zm5.11-13.63a8.15,8.15,0,1,1,8.14,8.15A8.15,8.15,0,0,1,617.11,188.44Zm42.8,0a8.14,8.14,0,1,1-8.14-8.14A8.15,8.15,0,0,1,659.91,188.44Zm-3-23.16a8.14,8.14,0,1,1,8.14,8.14A8.14,8.14,0,0,1,656.93,165.28Zm-18.37,8.14a8.14,8.14,0,1,1,8.14-8.14A8.13,8.13,0,0,1,638.56,173.42Zm0,28.65a8.14,8.14,0,1,1-8.14,8.14A8.14,8.14,0,0,1,638.51,202.07Zm13.26,68.86a8.14,8.14,0,1,1-8.14,8.14A8.14,8.14,0,0,1,651.77,270.93Zm8.14,52.51a8.14,8.14,0,1,1-8.14-8.14A8.14,8.14,0,0,1,659.91,323.44Zm-3-22.88A8.14,8.14,0,1,1,665,308.7,8.14,8.14,0,0,1,656.88,300.56ZM675.63,360a8.14,8.14,0,1,1-8.14,8.14A8.15,8.15,0,0,1,675.63,360Zm2.65-28.37a8.14,8.14,0,1,1,8.14-8.14A8.13,8.13,0,0,1,678.28,331.58Zm5.11-31a8.14,8.14,0,1,1,8.14,8.14A8.14,8.14,0,0,1,683.39,300.56ZM702.14,360a8.14,8.14,0,1,1-8.14,8.14A8.15,8.15,0,0,1,702.14,360Zm2.65-28.37a8.14,8.14,0,1,1,8.14-8.14A8.13,8.13,0,0,1,704.79,331.58Zm0-179.46a8.14,8.14,0,1,1,8.14-8.14A8.14,8.14,0,0,1,704.79,152.12Zm-13.21-22.77a8.14,8.14,0,1,1,8.14-8.14A8.14,8.14,0,0,1,691.58,129.35ZM686.42,144a8.14,8.14,0,1,1-8.14-8.14A8.15,8.15,0,0,1,686.42,144Zm-21.35-14.63a8.14,8.14,0,1,1,8.14-8.14A8.13,8.13,0,0,1,665.07,129.35ZM659.91,144a8.14,8.14,0,1,1-8.14-8.14A8.15,8.15,0,0,1,659.91,144Zm-21.35-14.63a8.14,8.14,0,1,1,8.14-8.14A8.13,8.13,0,0,1,638.56,129.35ZM633.4,144a8.15,8.15,0,1,1-8.15-8.14A8.15,8.15,0,0,1,633.4,144Zm-21.35-14.63a8.14,8.14,0,1,1,8.14-8.14A8.13,8.13,0,0,1,612.05,129.35ZM606.88,144a8.14,8.14,0,1,1-8.14-8.14A8.14,8.14,0,0,1,606.88,144Zm-21.34-14.63a8.14,8.14,0,1,1,8.14-8.14A8.14,8.14,0,0,1,585.54,129.35ZM580.37,144a8.14,8.14,0,1,1-8.14-8.14A8.14,8.14,0,0,1,580.37,144ZM559,129.35a8.14,8.14,0,1,1,8.14-8.14A8.14,8.14,0,0,1,559,129.35ZM553.86,144a8.14,8.14,0,1,1-8.14-8.14A8.14,8.14,0,0,1,553.86,144Zm-21.35-14.63a8.14,8.14,0,1,1,8.14-8.14A8.14,8.14,0,0,1,532.51,129.35ZM527.35,144a8.14,8.14,0,1,1-8.14-8.14A8.15,8.15,0,0,1,527.35,144ZM506,129.35a8.14,8.14,0,1,1,8.14-8.14A8.13,8.13,0,0,1,506,129.35ZM500.84,144a8.14,8.14,0,1,1-8.14-8.14A8.15,8.15,0,0,1,500.84,144Zm-21.35-14.63a8.14,8.14,0,1,1,8.14-8.14A8.13,8.13,0,0,1,479.49,129.35ZM474.33,144a8.15,8.15,0,1,1-8.14-8.14A8.15,8.15,0,0,1,474.33,144ZM453,129.35a8.14,8.14,0,1,1,8.14-8.14A8.13,8.13,0,0,1,453,129.35ZM447.81,144a8.14,8.14,0,1,1-8.14-8.14A8.14,8.14,0,0,1,447.81,144Zm-21.34-14.63a8.14,8.14,0,1,1,8.14-8.14A8.14,8.14,0,0,1,426.47,129.35ZM421.3,144a8.14,8.14,0,1,1-8.14-8.14A8.14,8.14,0,0,1,421.3,144ZM400,129.35a8.14,8.14,0,1,1,8.15-8.14A8.14,8.14,0,0,1,400,129.35Zm0,27.79a8.14,8.14,0,1,1-8.14,8.14A8.15,8.15,0,0,1,400,157.14Zm13.21,23.16a8.15,8.15,0,1,1-8.14,8.14A8.14,8.14,0,0,1,413.16,180.3Zm5.16-15a8.15,8.15,0,1,1,8.15,8.14A8.15,8.15,0,0,1,418.32,165.28Zm21.35,15a8.15,8.15,0,1,1-8.14,8.14A8.14,8.14,0,0,1,439.67,180.3Zm13.26,21.77a8.14,8.14,0,1,1-8.14,8.14A8.14,8.14,0,0,1,452.93,202.07Zm13.26,23.16a8.15,8.15,0,1,1-8.15,8.14A8.15,8.15,0,0,1,466.19,225.23Zm5.11-15a8.14,8.14,0,1,1,8.14,8.14A8.14,8.14,0,0,1,471.3,210.21Zm21.4,15a8.15,8.15,0,1,1-8.14,8.14A8.15,8.15,0,0,1,492.7,225.23Zm5.11-15a8.14,8.14,0,1,1,8.14,8.14A8.15,8.15,0,0,1,497.81,210.21Zm21.4,15a8.15,8.15,0,1,1-8.14,8.14A8.15,8.15,0,0,1,519.21,225.23ZM532.46,247a8.14,8.14,0,1,1-8.14,8.14A8.14,8.14,0,0,1,532.46,247Zm5.12-13.63a8.14,8.14,0,1,1,8.14,8.15A8.14,8.14,0,0,1,537.58,233.37ZM559,247a8.14,8.14,0,1,1-8.15,8.14A8.15,8.15,0,0,1,559,247Zm5.11-13.63a8.14,8.14,0,1,1,8.14,8.15A8.15,8.15,0,0,1,564.09,233.37ZM585.49,247a8.14,8.14,0,1,1-8.14,8.14A8.15,8.15,0,0,1,585.49,247Zm5.11-13.63a8.14,8.14,0,1,1,8.14,8.15A8.15,8.15,0,0,1,590.6,233.37ZM612,247a8.14,8.14,0,1,1-8.14,8.14A8.15,8.15,0,0,1,612,247Zm5.11-13.63a8.15,8.15,0,1,1,8.14,8.15A8.15,8.15,0,0,1,617.11,233.37ZM638.51,247a8.14,8.14,0,1,1-8.14,8.14A8.14,8.14,0,0,1,638.51,247Zm8.14,53.56a8.14,8.14,0,1,1-8.14-8.14A8.14,8.14,0,0,1,646.65,300.56Zm-10.37,82.55a8.15,8.15,0,1,1-8.14,8.15A8.15,8.15,0,0,1,636.28,383.11Zm13.25,21.49a8.14,8.14,0,1,1-8.14,8.14A8.14,8.14,0,0,1,649.53,404.6Zm5.12-13.34a8.14,8.14,0,1,1,8.14,8.14A8.14,8.14,0,0,1,654.65,391.26Zm21.4,13.34a8.14,8.14,0,1,1-8.15,8.14A8.15,8.15,0,0,1,676.05,404.6Zm5.11-13.34a8.14,8.14,0,1,1,8.14,8.14A8.14,8.14,0,0,1,681.16,391.26Zm21.4,13.34a8.14,8.14,0,1,1-8.14,8.14A8.15,8.15,0,0,1,702.56,404.6Zm4.27-13.34A8.15,8.15,0,1,1,715,399.4,8.15,8.15,0,0,1,706.83,391.26Zm13.68-23.17a8.14,8.14,0,1,1,8.14,8.14A8.14,8.14,0,0,1,720.51,368.09Zm8.56,36.51a8.14,8.14,0,1,1-8.14,8.14A8.15,8.15,0,0,1,729.07,404.6Zm4.28-13.34a8.14,8.14,0,1,1,8.14,8.14A8.14,8.14,0,0,1,733.35,391.26Zm21.39,13.34a8.14,8.14,0,1,1-8.14,8.14A8.14,8.14,0,0,1,754.74,404.6ZM747,368.09a8.14,8.14,0,1,1,8.14,8.14A8.15,8.15,0,0,1,747,368.09Zm-7.58-44.65a8.14,8.14,0,1,1-8.14-8.14A8.13,8.13,0,0,1,739.44,323.44ZM718.09,129.35a8.14,8.14,0,1,1,8.14-8.14A8.14,8.14,0,0,1,718.09,129.35ZM710,75.67a8.14,8.14,0,1,1,8.14,8.15A8.15,8.15,0,0,1,710,75.67Zm3,22.77a8.14,8.14,0,1,1-8.14-8.14A8.14,8.14,0,0,1,713,98.44Zm-21.4-14.62a8.15,8.15,0,1,1,8.14-8.15A8.15,8.15,0,0,1,691.58,83.82Zm-5.11,14.62a8.15,8.15,0,1,1-8.14-8.14A8.14,8.14,0,0,1,686.47,98.44Zm-21.4-14.62a8.15,8.15,0,1,1,8.14-8.15A8.14,8.14,0,0,1,665.07,83.82ZM660,98.44a8.15,8.15,0,1,1-8.15-8.14A8.14,8.14,0,0,1,660,98.44Zm-21.4-14.62a8.15,8.15,0,1,1,8.14-8.15A8.14,8.14,0,0,1,638.56,83.82Zm-5.12,14.62a8.14,8.14,0,1,1-8.14-8.14A8.13,8.13,0,0,1,633.44,98.44ZM612.05,83.82a8.15,8.15,0,1,1,8.14-8.15A8.14,8.14,0,0,1,612.05,83.82Zm-5.12,14.62a8.14,8.14,0,1,1-8.14-8.14A8.13,8.13,0,0,1,606.93,98.44ZM585.54,83.82a8.15,8.15,0,1,1,8.14-8.15A8.15,8.15,0,0,1,585.54,83.82Zm-5.12,14.62a8.14,8.14,0,1,1-8.14-8.14A8.13,8.13,0,0,1,580.42,98.44ZM559,83.82a8.15,8.15,0,1,1,8.14-8.15A8.15,8.15,0,0,1,559,83.82Zm-5.11,14.62a8.14,8.14,0,1,1-8.14-8.14A8.14,8.14,0,0,1,553.91,98.44Zm-21.4-14.62a8.15,8.15,0,1,1,8.14-8.15A8.15,8.15,0,0,1,532.51,83.82ZM527.4,98.44a8.14,8.14,0,1,1-8.14-8.14A8.14,8.14,0,0,1,527.4,98.44ZM506,83.82a8.15,8.15,0,1,1,8.14-8.15A8.14,8.14,0,0,1,506,83.82Zm-5.11,14.62a8.15,8.15,0,1,1-8.15-8.14A8.14,8.14,0,0,1,500.89,98.44Zm-21.4-14.62a8.15,8.15,0,1,1,8.14-8.15A8.14,8.14,0,0,1,479.49,83.82Zm-5.12,14.62a8.14,8.14,0,1,1-8.14-8.14A8.13,8.13,0,0,1,474.37,98.44ZM453,83.82a8.15,8.15,0,1,1,8.14-8.15A8.14,8.14,0,0,1,453,83.82Zm-5.12,14.62a8.14,8.14,0,1,1-8.14-8.14A8.13,8.13,0,0,1,447.86,98.44ZM426.47,83.82a8.15,8.15,0,1,1,8.14-8.15A8.15,8.15,0,0,1,426.47,83.82Zm-5.12,14.62a8.14,8.14,0,1,1-8.14-8.14A8.13,8.13,0,0,1,421.35,98.44ZM400,83.82a8.15,8.15,0,1,1,8.15-8.15A8.15,8.15,0,0,1,400,83.82Zm-5.11,14.62a8.14,8.14,0,1,1-8.14-8.14A8.14,8.14,0,0,1,394.84,98.44Zm-21.4-14.62a8.15,8.15,0,1,1,8.14-8.15A8.15,8.15,0,0,1,373.44,83.82Zm-5.11,14.62a8.14,8.14,0,1,1-8.14-8.14A8.14,8.14,0,0,1,368.33,98.44Zm-21.4-14.62a8.15,8.15,0,1,1,8.14-8.15A8.14,8.14,0,0,1,346.93,83.82Zm-5.11,14.62a8.15,8.15,0,1,1-8.14-8.14A8.14,8.14,0,0,1,341.82,98.44Zm-21.4-14.62a8.15,8.15,0,1,1,8.14-8.15A8.14,8.14,0,0,1,320.42,83.82Zm0,29.25a8.14,8.14,0,1,1-8.14,8.14A8.13,8.13,0,0,1,320.42,113.07Zm13.21,22.77a8.14,8.14,0,1,1-8.14,8.14A8.14,8.14,0,0,1,333.63,135.84Zm5.16-14.63a8.14,8.14,0,1,1,8.14,8.14A8.13,8.13,0,0,1,338.79,121.21Zm21.35,14.63A8.14,8.14,0,1,1,352,144,8.14,8.14,0,0,1,360.14,135.84Zm13.3,21.3a8.14,8.14,0,1,1-8.14,8.14A8.14,8.14,0,0,1,373.44,157.14Zm13.21,23.16a8.15,8.15,0,1,1-8.14,8.14A8.14,8.14,0,0,1,386.65,180.3Zm13.26,21.77a8.14,8.14,0,1,1-8.14,8.14A8.15,8.15,0,0,1,399.91,202.07Zm13.25,23.16a8.15,8.15,0,1,1-8.14,8.14A8.14,8.14,0,0,1,413.16,225.23Zm5.12-15a8.14,8.14,0,1,1,8.14,8.14A8.14,8.14,0,0,1,418.28,210.21Zm21.39,15a8.15,8.15,0,1,1-8.14,8.14A8.14,8.14,0,0,1,439.67,225.23ZM452.93,247a8.14,8.14,0,1,1-8.14,8.14A8.14,8.14,0,0,1,452.93,247Zm13.26,23.93a8.14,8.14,0,1,1-8.15,8.14A8.14,8.14,0,0,1,466.19,270.93Zm5.11-15.79a8.14,8.14,0,1,1,8.14,8.14A8.14,8.14,0,0,1,471.3,255.14Zm21.4,15.79a8.14,8.14,0,1,1-8.14,8.14A8.14,8.14,0,0,1,492.7,270.93Zm5.11-15.79a8.14,8.14,0,1,1,8.14,8.14A8.15,8.15,0,0,1,497.81,255.14Zm21.4,15.79a8.14,8.14,0,1,1-8.14,8.14A8.14,8.14,0,0,1,519.21,270.93Zm13.25,21.49a8.14,8.14,0,1,1-8.14,8.14A8.13,8.13,0,0,1,532.46,292.42Zm5.12-13.35a8.14,8.14,0,1,1,8.14,8.14A8.13,8.13,0,0,1,537.58,279.07ZM559,292.42a8.14,8.14,0,1,1-8.15,8.14A8.14,8.14,0,0,1,559,292.42Zm5.11-13.35a8.14,8.14,0,1,1,8.14,8.14A8.14,8.14,0,0,1,564.09,279.07Zm21.4,13.35a8.14,8.14,0,1,1-8.14,8.14A8.14,8.14,0,0,1,585.49,292.42Zm5.11-13.35a8.14,8.14,0,1,1,8.14,8.14A8.14,8.14,0,0,1,590.6,279.07Zm19.86,57.72a8.14,8.14,0,1,1-8.14,8.14A8.13,8.13,0,0,1,610.46,336.79Zm6.65-57.72a8.15,8.15,0,1,1,8.14,8.14A8.14,8.14,0,0,1,617.11,279.07Zm18.75,149a8.15,8.15,0,1,1-8.14,8.15A8.14,8.14,0,0,1,635.86,428ZM650,451.49a8.14,8.14,0,1,1-8.14,8.14A8.13,8.13,0,0,1,650,451.49Zm4.28-15.3a8.14,8.14,0,1,1,8.14,8.14A8.14,8.14,0,0,1,654.23,436.19Zm22.23,15.3a8.14,8.14,0,1,1-8.14,8.14A8.13,8.13,0,0,1,676.46,451.49Zm4.28-15.3a8.14,8.14,0,1,1,8.14,8.14A8.15,8.15,0,0,1,680.74,436.19ZM703,451.49a8.14,8.14,0,1,1-8.15,8.14A8.14,8.14,0,0,1,703,451.49Zm4.27-15.3a8.14,8.14,0,1,1,8.14,8.14A8.15,8.15,0,0,1,707.25,436.19Zm21.4,15.3a8.14,8.14,0,1,1-8.14,8.14A8.13,8.13,0,0,1,728.65,451.49Zm4.28-15.3a8.14,8.14,0,1,1,8.14,8.14A8.14,8.14,0,0,1,732.93,436.19Zm22.23,15.3a8.14,8.14,0,1,1-8.14,8.14A8.13,8.13,0,0,1,755.16,451.49ZM768,399.4a8.15,8.15,0,1,1,8.14-8.14A8.14,8.14,0,0,1,768,399.4Zm8.14-53.63a8.14,8.14,0,1,1-8.14-8.14A8.15,8.15,0,0,1,776.14,345.77ZM771.07,22a8.14,8.14,0,1,1-8.14,8.14A8.14,8.14,0,0,1,771.07,22ZM766,98.44a8.14,8.14,0,1,1-8.14-8.14A8.13,8.13,0,0,1,766,98.44Zm-6-46.53a8.15,8.15,0,1,1-8.14-8.14A8.15,8.15,0,0,1,760.05,51.91ZM744.56,22a8.14,8.14,0,1,1-8.14,8.14A8.14,8.14,0,0,1,744.56,22Zm-5.07,76.44a8.14,8.14,0,1,1-8.14-8.14A8.14,8.14,0,0,1,739.49,98.44ZM734,51.91a8.14,8.14,0,1,1-8.14-8.14A8.14,8.14,0,0,1,734,51.91ZM718.05,22a8.14,8.14,0,1,1-8.15,8.14A8.14,8.14,0,0,1,718.05,22ZM708,51.91a8.14,8.14,0,1,1-8.14-8.14A8.14,8.14,0,0,1,708,51.91ZM691.53,22a8.14,8.14,0,1,1-8.14,8.14A8.13,8.13,0,0,1,691.53,22Zm-9.62,29.91a8.14,8.14,0,1,1-8.14-8.14A8.15,8.15,0,0,1,681.91,51.91ZM665,22a8.14,8.14,0,1,1-8.14,8.14A8.13,8.13,0,0,1,665,22Zm-9.16,29.91a8.14,8.14,0,1,1-8.14-8.14A8.14,8.14,0,0,1,655.86,51.91ZM638.51,22a8.14,8.14,0,1,1-8.14,8.14A8.13,8.13,0,0,1,638.51,22Zm-8.7,29.91a8.14,8.14,0,1,1-8.14-8.14A8.14,8.14,0,0,1,629.81,51.91ZM612,22a8.14,8.14,0,1,1-8.14,8.14A8.14,8.14,0,0,1,612,22Zm-8.23,29.91a8.14,8.14,0,1,1-8.14-8.14A8.15,8.15,0,0,1,603.77,51.91ZM585.49,22a8.14,8.14,0,1,1-8.14,8.14A8.14,8.14,0,0,1,585.49,22Zm-7.77,29.91a8.14,8.14,0,1,1-8.14-8.14A8.14,8.14,0,0,1,577.72,51.91ZM559,22a8.14,8.14,0,1,1-8.15,8.14A8.14,8.14,0,0,1,559,22Zm-7.31,29.91a8.14,8.14,0,1,1-8.14-8.14A8.14,8.14,0,0,1,551.67,51.91ZM532.46,22a8.14,8.14,0,1,1-8.14,8.14A8.13,8.13,0,0,1,532.46,22Zm-6.83,29.91a8.14,8.14,0,1,1-8.14-8.14A8.15,8.15,0,0,1,525.63,51.91ZM506,22a8.14,8.14,0,1,1-8.14,8.14A8.13,8.13,0,0,1,506,22Zm-6.37,29.91a8.14,8.14,0,1,1-8.14-8.14A8.14,8.14,0,0,1,499.58,51.91ZM479.44,22a8.14,8.14,0,1,1-8.14,8.14A8.13,8.13,0,0,1,479.44,22Zm-5.9,29.91a8.15,8.15,0,1,1-8.15-8.14A8.15,8.15,0,0,1,473.54,51.91ZM452.93,22a8.14,8.14,0,1,1-8.14,8.14A8.13,8.13,0,0,1,452.93,22Zm-5.44,29.91a8.14,8.14,0,1,1-8.14-8.14A8.15,8.15,0,0,1,447.49,51.91ZM426.42,22a8.14,8.14,0,1,1-8.14,8.14A8.14,8.14,0,0,1,426.42,22ZM413.3,43.77a8.14,8.14,0,1,1-8.14,8.14A8.13,8.13,0,0,1,413.3,43.77ZM399.91,22a8.14,8.14,0,1,1-8.14,8.14A8.14,8.14,0,0,1,399.91,22ZM386.79,43.77a8.14,8.14,0,1,1-8.14,8.14A8.13,8.13,0,0,1,386.79,43.77ZM373.39,22a8.14,8.14,0,1,1-8.14,8.14A8.14,8.14,0,0,1,373.39,22ZM360.28,43.77a8.14,8.14,0,1,1-8.14,8.14A8.14,8.14,0,0,1,360.28,43.77ZM346.88,22a8.14,8.14,0,1,1-8.14,8.14A8.13,8.13,0,0,1,346.88,22ZM333.77,43.77a8.14,8.14,0,1,1-8.14,8.14A8.14,8.14,0,0,1,333.77,43.77ZM320.37,22a8.14,8.14,0,1,1-8.14,8.14A8.13,8.13,0,0,1,320.37,22Zm-34.65,8.14a8.14,8.14,0,1,1,8.14,8.14A8.13,8.13,0,0,1,285.72,30.14Zm13.39,21.77a8.15,8.15,0,1,1,8.15,8.14A8.14,8.14,0,0,1,299.11,51.91Zm13.17,113.37a8.14,8.14,0,1,1,8.14,8.14A8.14,8.14,0,0,1,312.28,165.28Zm21.35,31.31a8.15,8.15,0,1,1,8.14-8.15A8.14,8.14,0,0,1,333.63,196.59Zm5.16-31.31a8.14,8.14,0,1,1,8.14,8.14A8.14,8.14,0,0,1,338.79,165.28ZM352,188.44a8.14,8.14,0,1,1,8.14,8.15A8.14,8.14,0,0,1,352,188.44Zm13.25,21.77a8.15,8.15,0,1,1,8.14,8.14A8.15,8.15,0,0,1,365.25,210.21Zm13.26,23.16a8.14,8.14,0,1,1,8.14,8.15A8.14,8.14,0,0,1,378.51,233.37Zm13.26,21.77a8.14,8.14,0,1,1,8.14,8.14A8.14,8.14,0,0,1,391.77,255.14Zm21.39,32.07a8.14,8.14,0,1,1,8.14-8.14A8.14,8.14,0,0,1,413.16,287.21Zm5.12-32.07a8.14,8.14,0,1,1,8.14,8.14A8.14,8.14,0,0,1,418.28,255.14Zm13.25,23.93a8.14,8.14,0,1,1,8.14,8.14A8.14,8.14,0,0,1,431.53,279.07Zm13.26,21.49a8.14,8.14,0,1,1,8.14,8.14A8.13,8.13,0,0,1,444.79,300.56Zm21.4,31a8.14,8.14,0,1,1,8.14-8.14A8.14,8.14,0,0,1,466.19,331.58Zm5.11-31a8.14,8.14,0,1,1,8.14,8.14A8.13,8.13,0,0,1,471.3,300.56Zm21.4,31a8.14,8.14,0,1,1,8.14-8.14A8.13,8.13,0,0,1,492.7,331.58Zm5.11-31A8.14,8.14,0,1,1,506,308.7,8.14,8.14,0,0,1,497.81,300.56Zm13.26,22.88a8.14,8.14,0,1,1,8.14,8.14A8.14,8.14,0,0,1,511.07,323.44Zm19.86,29.63a8.14,8.14,0,1,1,8.14-8.14A8.13,8.13,0,0,1,530.93,353.07Zm6.65-29.63a8.14,8.14,0,1,1,8.14,8.14A8.14,8.14,0,0,1,537.58,323.44Zm19.86,29.63a8.14,8.14,0,1,1,8.14-8.14A8.13,8.13,0,0,1,557.44,353.07Zm6.65-29.63a8.14,8.14,0,1,1,8.14,8.14A8.15,8.15,0,0,1,564.09,323.44Zm11.72,21.49a8.14,8.14,0,1,1,8.14,8.14A8.14,8.14,0,0,1,575.81,344.93Zm13.12,23.16a8.14,8.14,0,1,1,8.14,8.14A8.14,8.14,0,0,1,588.93,368.09Zm12.7,23.17a8.14,8.14,0,1,1,8.14,8.14A8.14,8.14,0,0,1,601.63,391.26Zm21.81,60.23a8.14,8.14,0,1,1-8.14,8.14A8.13,8.13,0,0,1,623.44,451.49Zm.42,59.81a8.14,8.14,0,1,1,8.14-8.14A8.13,8.13,0,0,1,623.86,511.3Zm12.42-21.76a8.15,8.15,0,1,1,8.14-8.15A8.14,8.14,0,0,1,636.28,489.54Zm14.09,21.76a8.14,8.14,0,1,1,8.14-8.14A8.13,8.13,0,0,1,650.37,511.3Zm12.42-21.76a8.15,8.15,0,1,1,8.14-8.15A8.14,8.14,0,0,1,662.79,489.54Zm14.09,21.76a8.14,8.14,0,1,1,8.14-8.14A8.14,8.14,0,0,1,676.88,511.3Zm12.42-21.76a8.15,8.15,0,1,1,8.14-8.15A8.14,8.14,0,0,1,689.3,489.54Zm14.09,21.76a8.14,8.14,0,1,1,8.14-8.14A8.14,8.14,0,0,1,703.39,511.3Zm4.28-29.91a8.14,8.14,0,1,1,8.14,8.15A8.15,8.15,0,0,1,707.67,481.39Zm21.4,29.91a8.14,8.14,0,1,1,8.14-8.14A8.13,8.13,0,0,1,729.07,511.3Zm12.42-21.76a8.15,8.15,0,1,1,8.14-8.15A8.14,8.14,0,0,1,741.49,489.54Zm14.09,21.76a8.14,8.14,0,1,1,8.14-8.14A8.13,8.13,0,0,1,755.58,511.3Zm4.28-29.91a8.14,8.14,0,1,1,8.14,8.15A8.14,8.14,0,0,1,759.86,481.39Z" transform="translate(-9.65 -13.47)" style="fill:#1a1444"/><circle cx="257.7" cy="16.67" r="8.14" style="fill:#322a55"/><circle cx="284.21" cy="16.67" r="8.14" style="fill:#322a55"/><circle cx="310.72" cy="16.67" r="8.14" style="fill:#322a55"/><circle cx="346.88" cy="30.14" r="8.14" transform="translate(-10 42.48) rotate(-9.22)" style="fill:#322a55"/><circle cx="373.39" cy="30.14" r="8.14" transform="translate(193.01 350.11) rotate(-67.5)" style="fill:#322a55"/><circle cx="307.26" cy="51.91" r="8.14" transform="translate(43.64 219) rotate(-45)" style="fill:#322a55"/><circle cx="333.77" cy="51.91" r="8.14" transform="translate(148.44 326.93) rotate(-67.5)" style="fill:#322a55"/><circle cx="360.28" cy="51.91" r="8.14" transform="translate(-11.94 70.69) rotate(-13.28)" style="fill:#322a55"/><circle cx="386.79" cy="51.91" r="8.14" transform="translate(66.94 275.24) rotate(-45)" style="fill:#322a55"/><circle cx="413.3" cy="51.91" r="8.14" transform="translate(197.53 400.41) rotate(-67.5)" style="fill:#322a55"/><circle cx="439.35" cy="51.91" r="8.14" transform="translate(213.61 424.48) rotate(-67.5)" style="fill:#322a55"/><circle cx="465.39" cy="51.91" r="8.14" transform="translate(89.96 330.82) rotate(-45)" style="fill:#322a55"/><circle cx="491.44" cy="51.91" r="8.14" transform="translate(-12.37 35.21) rotate(-5.65)" style="fill:#322a55"/><circle cx="517.49" cy="51.91" r="8.14" transform="translate(9.88 188.52) rotate(-22.5)" style="fill:#322a55"/><circle cx="543.53" cy="51.91" r="8.14" transform="translate(277.93 520.73) rotate(-67.5)" style="fill:#322a55"/><path d="M561.44,51.91a8.14,8.14,0,1,0,8.14-8.14A8.14,8.14,0,0,0,561.44,51.91Z" transform="translate(-9.65 -13.47)" style="fill:#322a55"/><circle cx="595.63" cy="51.91" r="8.14" transform="translate(15.83 218.42) rotate(-22.5)" style="fill:#322a55"/><path d="M613.53,51.91a8.14,8.14,0,1,0,8.14-8.14A8.15,8.15,0,0,0,613.53,51.91Z" transform="translate(-9.65 -13.47)" style="fill:#322a55"/><path d="M639.58,51.91a8.14,8.14,0,1,0,8.14-8.14A8.14,8.14,0,0,0,639.58,51.91Z" transform="translate(-9.65 -13.47)" style="fill:#322a55"/><circle cx="673.77" cy="51.91" r="8.14" transform="translate(358.32 641.05) rotate(-67.5)" style="fill:#322a55"/><path d="M691.67,51.91a8.14,8.14,0,1,0,8.14-8.14A8.15,8.15,0,0,0,691.67,51.91Z" transform="translate(-9.65 -13.47)" style="fill:#322a55"/><circle cx="725.86" cy="51.91" r="8.14" transform="translate(390.48 689.18) rotate(-67.5)" style="fill:#322a55"/><circle cx="751.91" cy="51.91" r="8.14" transform="translate(-11.1 60.87) rotate(-5.65)" style="fill:#322a55"/><path d="M769.81,51.91A8.15,8.15,0,0,0,778,60.05a8,8,0,0,0,3.32-.72V44.48a8,8,0,0,0-3.32-.71A8.14,8.14,0,0,0,769.81,51.91Z" transform="translate(-9.65 -13.47)" style="fill:#322a55"/><circle cx="390.26" cy="16.67" r="8.14" style="fill:#322a55"/><circle cx="426.42" cy="30.14" r="8.14" transform="translate(-8.97 55.22) rotate(-9.22)" style="fill:#322a55"/><circle cx="452.93" cy="30.14" r="8.14" transform="translate(242.11 423.59) rotate(-67.5)" style="fill:#322a55"/><circle cx="469.79" cy="16.67" r="8.14" style="fill:#322a55"/><circle cx="496.3" cy="16.67" r="8.14" style="fill:#322a55"/><path d="M532.46,38.28a8.14,8.14,0,1,0-8.14-8.14A8.13,8.13,0,0,0,532.46,38.28Z" transform="translate(-9.65 -13.47)" style="fill:#322a55"/><path d="M254.09,16.51a8.15,8.15,0,0,0,6.35-3H247.75A8.13,8.13,0,0,0,254.09,16.51Z" transform="translate(-9.65 -13.47)" style="fill:#322a55"/><path d="M280.6,16.51a8.15,8.15,0,0,0,6.35-3H274.26A8.13,8.13,0,0,0,280.6,16.51Z" transform="translate(-9.65 -13.47)" style="fill:#322a55"/><path d="M307.12,16.51a8.13,8.13,0,0,0,6.34-3H300.77A8.15,8.15,0,0,0,307.12,16.51Z" transform="translate(-9.65 -13.47)" style="fill:#322a55"/><path d="M333.63,16.51a8.13,8.13,0,0,0,6.34-3H327.28A8.15,8.15,0,0,0,333.63,16.51Z" transform="translate(-9.65 -13.47)" style="fill:#322a55"/><path d="M360.14,16.51a8.13,8.13,0,0,0,6.34-3H353.8A8.12,8.12,0,0,0,360.14,16.51Z" transform="translate(-9.65 -13.47)" style="fill:#322a55"/><path d="M386.65,16.51a8.12,8.12,0,0,0,6.34-3H380.31A8.13,8.13,0,0,0,386.65,16.51Z" transform="translate(-9.65 -13.47)" style="fill:#322a55"/><path d="M413.16,16.51a8.12,8.12,0,0,0,6.34-3H406.82A8.13,8.13,0,0,0,413.16,16.51Z" transform="translate(-9.65 -13.47)" style="fill:#322a55"/><path d="M439.67,16.51a8.15,8.15,0,0,0,6.35-3H433.33A8.13,8.13,0,0,0,439.67,16.51Z" transform="translate(-9.65 -13.47)" style="fill:#322a55"/><path d="M466.19,16.51a8.13,8.13,0,0,0,6.34-3H459.84A8.14,8.14,0,0,0,466.19,16.51Z" transform="translate(-9.65 -13.47)" style="fill:#322a55"/><path d="M492.7,16.51a8.13,8.13,0,0,0,6.34-3H486.35A8.15,8.15,0,0,0,492.7,16.51Z" transform="translate(-9.65 -13.47)" style="fill:#322a55"/><path d="M519.21,16.51a8.13,8.13,0,0,0,6.34-3H512.87A8.12,8.12,0,0,0,519.21,16.51Z" transform="translate(-9.65 -13.47)" style="fill:#322a55"/><path d="M545.72,16.51a8.12,8.12,0,0,0,6.34-3H539.38A8.12,8.12,0,0,0,545.72,16.51Z" transform="translate(-9.65 -13.47)" style="fill:#322a55"/><path d="M572.23,16.51a8.12,8.12,0,0,0,6.34-3H565.89A8.13,8.13,0,0,0,572.23,16.51Z" transform="translate(-9.65 -13.47)" style="fill:#322a55"/><path d="M559,38.28a8.14,8.14,0,1,0-8.15-8.14A8.14,8.14,0,0,0,559,38.28Z" transform="translate(-9.65 -13.47)" style="fill:#322a55"/><circle cx="575.84" cy="16.67" r="8.14" style="fill:#322a55"/><circle cx="602.35" cy="16.67" r="8.14" style="fill:#322a55"/><circle cx="628.86" cy="16.67" r="8.14" style="fill:#322a55"/><path d="M665,38.28a8.14,8.14,0,1,0-8.14-8.14A8.13,8.13,0,0,0,665,38.28Z" transform="translate(-9.65 -13.47)" style="fill:#322a55"/><path d="M691.53,38.28a8.14,8.14,0,1,0-8.14-8.14A8.13,8.13,0,0,0,691.53,38.28Z" transform="translate(-9.65 -13.47)" style="fill:#322a55"/><path d="M718.05,38.28a8.14,8.14,0,1,0-8.15-8.14A8.14,8.14,0,0,0,718.05,38.28Z" transform="translate(-9.65 -13.47)" style="fill:#322a55"/><path d="M744.56,38.28a8.14,8.14,0,1,0-8.14-8.14A8.14,8.14,0,0,0,744.56,38.28Z" transform="translate(-9.65 -13.47)" style="fill:#322a55"/><path d="M648.74,16.51a8.12,8.12,0,0,0,6.34-3H642.4A8.12,8.12,0,0,0,648.74,16.51Z" transform="translate(-9.65 -13.47)" style="fill:#322a55"/><path d="M675.25,16.51a8.12,8.12,0,0,0,6.34-3H668.91A8.13,8.13,0,0,0,675.25,16.51Z" transform="translate(-9.65 -13.47)" style="fill:#322a55"/><path d="M701.76,16.51a8.15,8.15,0,0,0,6.35-3H695.42A8.13,8.13,0,0,0,701.76,16.51Z" transform="translate(-9.65 -13.47)" style="fill:#322a55"/><path d="M728.27,16.51a8.15,8.15,0,0,0,6.35-3H721.93A8.13,8.13,0,0,0,728.27,16.51Z" transform="translate(-9.65 -13.47)" style="fill:#322a55"/><path d="M754.79,16.51a8.13,8.13,0,0,0,6.34-3H748.44A8.15,8.15,0,0,0,754.79,16.51Z" transform="translate(-9.65 -13.47)" style="fill:#322a55"/><circle cx="761.42" cy="16.67" r="8.14" style="fill:#322a55"/><circle cx="310.77" cy="62.2" r="8.14" style="fill:#322a55"/><circle cx="346.93" cy="75.67" r="8.14" transform="translate(38.46 254.01) rotate(-45)" style="fill:#322a55"/><circle cx="373.44" cy="75.67" r="8.14" transform="translate(-17.04 74.35) rotate(-13.28)" style="fill:#322a55"/><circle cx="390.31" cy="62.2" r="8.14" style="fill:#322a55"/><circle cx="426.47" cy="75.67" r="8.14" transform="translate(61.75 310.25) rotate(-45)" style="fill:#322a55"/><circle cx="443.33" cy="62.2" r="8.14" style="fill:#322a55"/><circle cx="469.84" cy="62.2" r="8.14" style="fill:#322a55"/><path d="M506,67.53a8.15,8.15,0,1,0,8.14,8.14A8.14,8.14,0,0,0,506,67.53Z" transform="translate(-9.65 -13.47)" style="fill:#322a55"/><path d="M532.51,67.53a8.15,8.15,0,1,0,8.14,8.14A8.15,8.15,0,0,0,532.51,67.53Z" transform="translate(-9.65 -13.47)" style="fill:#322a55"/><path d="M559,67.53a8.15,8.15,0,1,0,8.14,8.14A8.15,8.15,0,0,0,559,67.53Z" transform="translate(-9.65 -13.47)" style="fill:#322a55"/><path d="M585.54,67.53a8.15,8.15,0,1,0,8.14,8.14A8.15,8.15,0,0,0,585.54,67.53Z" transform="translate(-9.65 -13.47)" style="fill:#322a55"/><circle cx="602.4" cy="62.2" r="8.14" style="fill:#322a55"/><path d="M638.56,67.53a8.15,8.15,0,1,0,8.14,8.14A8.14,8.14,0,0,0,638.56,67.53Z" transform="translate(-9.65 -13.47)" style="fill:#322a55"/><path d="M665.07,67.53a8.15,8.15,0,1,0,8.14,8.14A8.14,8.14,0,0,0,665.07,67.53Z" transform="translate(-9.65 -13.47)" style="fill:#322a55"/><path d="M691.58,67.53a8.15,8.15,0,1,0,8.14,8.14A8.15,8.15,0,0,0,691.58,67.53Z" transform="translate(-9.65 -13.47)" style="fill:#322a55"/><circle cx="718.09" cy="75.67" r="8.14" transform="matrix(0.16, -0.99, 0.99, 0.16, 518.72, 758.9)" style="fill:#322a55"/><circle cx="744.6" cy="75.67" r="8.14" transform="translate(-12.16 106.78) rotate(-9.22)" style="fill:#322a55"/><circle cx="333.68" cy="98.44" r="8.14" transform="translate(-23.34 65.83) rotate(-13.28)" style="fill:#322a55"/><circle cx="360.19" cy="98.44" r="8.14" transform="translate(26.24 270.05) rotate(-45)" style="fill:#322a55"/><circle cx="386.7" cy="98.44" r="8.14" transform="translate(138.12 404.56) rotate(-67.5)" style="fill:#322a55"/><circle cx="413.21" cy="98.44" r="8.14" transform="translate(-21.21 84.1) rotate(-13.28)" style="fill:#322a55"/><circle cx="439.72" cy="98.44" r="8.14" transform="translate(49.53 326.29) rotate(-45)" style="fill:#322a55"/><path d="M458.09,98.44a8.14,8.14,0,1,0,8.14-8.14A8.14,8.14,0,0,0,458.09,98.44Z" transform="translate(-9.65 -13.47)" style="fill:#322a55"/><circle cx="492.74" cy="98.44" r="8.14" transform="translate(-9.81 182.59) rotate(-22.5)" style="fill:#322a55"/><circle cx="519.26" cy="98.44" r="8.14" transform="translate(219.95 527.03) rotate(-67.5)" style="fill:#322a55"/><circle cx="545.77" cy="98.44" r="8.14" transform="translate(236.32 551.52) rotate(-67.5)" style="fill:#322a55"/><circle cx="572.28" cy="98.44" r="8.14" transform="translate(252.68 576.02) rotate(-67.5)" style="fill:#322a55"/><path d="M590.65,98.44a8.14,8.14,0,1,0,8.14-8.14A8.13,8.13,0,0,0,590.65,98.44Z" transform="translate(-9.65 -13.47)" style="fill:#322a55"/><circle cx="625.3" cy="98.44" r="8.14" transform="translate(0.28 233.32) rotate(-22.5)" style="fill:#322a55"/><circle cx="651.81" cy="98.44" r="8.14" transform="translate(301.78 649.5) rotate(-67.5)" style="fill:#322a55"/><circle cx="678.33" cy="98.44" r="8.14" transform="translate(318.15 673.99) rotate(-67.5)" style="fill:#322a55"/><circle cx="704.84" cy="98.44" r="8.14" transform="translate(334.51 698.49) rotate(-67.5)" style="fill:#322a55"/><circle cx="731.35" cy="98.44" r="8.14" transform="translate(-15.79 59.07) rotate(-5.65)" style="fill:#322a55"/><path d="M749.72,98.44a8.14,8.14,0,1,0,8.14-8.14A8.13,8.13,0,0,0,749.72,98.44Z" transform="translate(-9.65 -13.47)" style="fill:#322a55"/><circle cx="310.77" cy="107.74" r="8.14" style="fill:#322a55"/><circle cx="346.93" cy="121.21" r="8.14" transform="translate(-28.22 69.48) rotate(-13.28)" style="fill:#322a55"/><circle cx="373.44" cy="121.21" r="8.14" transform="translate(-27.51 75.57) rotate(-13.28)" style="fill:#322a55"/><circle cx="390.31" cy="107.74" r="8.14" style="fill:#322a55"/><circle cx="426.47" cy="121.21" r="8.14" transform="translate(29.55 323.59) rotate(-45)" style="fill:#322a55"/><circle cx="443.33" cy="107.74" r="8.14" style="fill:#322a55"/><circle cx="469.84" cy="107.74" r="8.14" style="fill:#322a55"/><path d="M506,113.07a8.14,8.14,0,1,0,8.14,8.14A8.13,8.13,0,0,0,506,113.07Z" transform="translate(-9.65 -13.47)" style="fill:#322a55"/><path d="M532.51,113.07a8.14,8.14,0,1,0,8.14,8.14A8.14,8.14,0,0,0,532.51,113.07Z" transform="translate(-9.65 -13.47)" style="fill:#322a55"/><path d="M559,113.07a8.14,8.14,0,1,0,8.14,8.14A8.14,8.14,0,0,0,559,113.07Z" transform="translate(-9.65 -13.47)" style="fill:#322a55"/><path d="M585.54,113.07a8.14,8.14,0,1,0,8.14,8.14A8.14,8.14,0,0,0,585.54,113.07Z" transform="translate(-9.65 -13.47)" style="fill:#322a55"/><circle cx="602.4" cy="107.74" r="8.14" style="fill:#322a55"/><path d="M638.56,113.07a8.14,8.14,0,1,0,8.14,8.14A8.13,8.13,0,0,0,638.56,113.07Z" transform="translate(-9.65 -13.47)" style="fill:#322a55"/><path d="M665.07,113.07a8.14,8.14,0,1,0,8.14,8.14A8.13,8.13,0,0,0,665.07,113.07Z" transform="translate(-9.65 -13.47)" style="fill:#322a55"/><path d="M691.58,113.07a8.14,8.14,0,1,0,8.14,8.14A8.14,8.14,0,0,0,691.58,113.07Z" transform="translate(-9.65 -13.47)" style="fill:#322a55"/><path d="M718.09,113.07a8.14,8.14,0,1,0,8.14,8.14A8.14,8.14,0,0,0,718.09,113.07Z" transform="translate(-9.65 -13.47)" style="fill:#322a55"/><circle cx="744.6" cy="121.21" r="8.14" transform="translate(338.03 749.28) rotate(-67.5)" style="fill:#322a55"/><circle cx="323.98" cy="130.51" r="8.14" style="fill:#322a55"/><circle cx="360.14" cy="143.98" r="8.14" transform="translate(-5.97 283.36) rotate(-45)" style="fill:#322a55"/><circle cx="386.65" cy="143.98" r="8.14" transform="translate(-32.38 79.22) rotate(-13.28)" style="fill:#322a55"/><circle cx="413.16" cy="143.98" r="8.14" transform="translate(112.39 457.12) rotate(-67.5)" style="fill:#322a55"/><circle cx="439.67" cy="143.98" r="8.14" transform="translate(17.32 339.6) rotate(-45)" style="fill:#322a55"/><path d="M458,144a8.15,8.15,0,1,0,8.15-8.14A8.15,8.15,0,0,0,458,144Z" transform="translate(-9.65 -13.47)" style="fill:#322a55"/><path d="M484.56,144a8.14,8.14,0,1,0,8.14-8.14A8.14,8.14,0,0,0,484.56,144Z" transform="translate(-9.65 -13.47)" style="fill:#322a55"/><circle cx="519.21" cy="143.98" r="8.14" transform="translate(-25.22 196.18) rotate(-22.5)" style="fill:#322a55"/><circle cx="545.72" cy="143.98" r="8.14" transform="translate(194.22 579.59) rotate(-67.5)" style="fill:#322a55"/><circle cx="572.23" cy="143.98" r="8.14" transform="translate(-21.05 43.62) rotate(-5.65)" style="fill:#322a55"/><path d="M590.6,144a8.14,8.14,0,1,0,8.14-8.14A8.15,8.15,0,0,0,590.6,144Z" transform="translate(-9.65 -13.47)" style="fill:#322a55"/><path d="M617.11,144a8.15,8.15,0,1,0,8.14-8.14A8.15,8.15,0,0,0,617.11,144Z" transform="translate(-9.65 -13.47)" style="fill:#322a55"/><circle cx="651.77" cy="143.98" r="8.14" transform="translate(-15.13 246.91) rotate(-22.5)" style="fill:#322a55"/><circle cx="678.28" cy="143.98" r="8.14" transform="translate(276.05 702.06) rotate(-67.5)" style="fill:#322a55"/><circle cx="695.14" cy="130.51" r="8.14" style="fill:#322a55"/><circle cx="320.42" cy="165.28" r="8.14" transform="translate(35.45 384.59) rotate(-67.5)" style="fill:#322a55"/><circle cx="346.93" cy="165.28" r="8.14" transform="translate(-24.91 280.26) rotate(-45)" style="fill:#322a55"/><circle cx="373.44" cy="165.28" r="8.14" transform="translate(-17.14 299) rotate(-45)" style="fill:#322a55"/><circle cx="390.31" cy="151.81" r="8.14" style="fill:#322a55"/><circle cx="426.47" cy="165.28" r="8.14" transform="translate(-1.61 336.5) rotate(-45)" style="fill:#322a55"/><circle cx="443.33" cy="151.81" r="8.14" style="fill:#322a55"/><circle cx="479.49" cy="165.28" r="8.14" transform="translate(133.65 531.55) rotate(-67.5)" style="fill:#322a55"/><circle cx="506" cy="165.28" r="8.14" transform="translate(-34.38 192.75) rotate(-22.5)" style="fill:#322a55"/><path d="M532.51,173.42a8.14,8.14,0,1,0-8.14-8.14A8.13,8.13,0,0,0,532.51,173.42Z" transform="translate(-9.65 -13.47)" style="fill:#322a55"/><path d="M559,173.42a8.14,8.14,0,1,0-8.14-8.14A8.13,8.13,0,0,0,559,173.42Z" transform="translate(-9.65 -13.47)" style="fill:#322a55"/><path d="M585.54,173.42a8.14,8.14,0,1,0-8.15-8.14A8.14,8.14,0,0,0,585.54,173.42Z" transform="translate(-9.65 -13.47)" style="fill:#322a55"/><circle cx="602.4" cy="151.81" r="8.14" style="fill:#322a55"/><path d="M638.56,157.14a8.14,8.14,0,1,0,8.14,8.14A8.14,8.14,0,0,0,638.56,157.14Z" transform="translate(-9.65 -13.47)" style="fill:#322a55"/><path d="M665.07,173.42a8.14,8.14,0,1,0-8.14-8.14A8.13,8.13,0,0,0,665.07,173.42Z" transform="translate(-9.65 -13.47)" style="fill:#322a55"/><circle cx="323.98" cy="174.97" r="8.14" style="fill:#322a55"/><circle cx="350.49" cy="174.97" r="8.14" style="fill:#322a55"/><circle cx="386.65" cy="188.44" r="8.14" transform="translate(54.94 460.08) rotate(-67.5)" style="fill:#322a55"/><circle cx="403.51" cy="174.97" r="8.14" style="fill:#322a55"/><circle cx="439.67" cy="188.44" r="8.14" transform="translate(87.67 509.07) rotate(-67.5)" style="fill:#322a55"/><path d="M466.19,196.59a8.15,8.15,0,1,0-8.15-8.15A8.15,8.15,0,0,0,466.19,196.59Z" transform="translate(-9.65 -13.47)" style="fill:#322a55"/><path d="M492.7,196.59a8.15,8.15,0,1,0-8.14-8.15A8.15,8.15,0,0,0,492.7,196.59Z" transform="translate(-9.65 -13.47)" style="fill:#322a55"/><path d="M519.21,196.59a8.15,8.15,0,1,0-8.14-8.15A8.15,8.15,0,0,0,519.21,196.59Z" transform="translate(-9.65 -13.47)" style="fill:#322a55"/><circle cx="536.07" cy="174.97" r="8.14" style="fill:#322a55"/><circle cx="562.58" cy="174.97" r="8.14" style="fill:#322a55"/><path d="M606.88,188.44a8.14,8.14,0,1,0-8.14,8.15A8.14,8.14,0,0,0,606.88,188.44Z" transform="translate(-9.65 -13.47)" style="fill:#322a55"/><path d="M633.4,188.44a8.15,8.15,0,1,0-8.15,8.15A8.15,8.15,0,0,0,633.4,188.44Z" transform="translate(-9.65 -13.47)" style="fill:#322a55"/><circle cx="642.12" cy="174.97" r="8.14" style="fill:#322a55"/><circle cx="363.75" cy="196.74" r="8.14" style="fill:#322a55"/><circle cx="390.26" cy="196.74" r="8.14" style="fill:#322a55"/><circle cx="416.77" cy="196.74" r="8.14" style="fill:#322a55"/><circle cx="452.93" cy="210.21" r="8.14" transform="translate(75.74 534.75) rotate(-67.5)" style="fill:#322a55"/><circle cx="469.79" cy="196.74" r="8.14" style="fill:#322a55"/><circle cx="496.3" cy="196.74" r="8.14" style="fill:#322a55"/><path d="M532.46,218.35a8.14,8.14,0,1,0-8.14-8.14A8.13,8.13,0,0,0,532.46,218.35Z" transform="translate(-9.65 -13.47)" style="fill:#322a55"/><path d="M559,218.35a8.14,8.14,0,1,0-8.15-8.14A8.14,8.14,0,0,0,559,218.35Z" transform="translate(-9.65 -13.47)" style="fill:#322a55"/><circle cx="575.84" cy="196.74" r="8.14" style="fill:#322a55"/><circle cx="602.35" cy="196.74" r="8.14" style="fill:#322a55"/><circle cx="628.86" cy="196.74" r="8.14" style="fill:#322a55"/><circle cx="386.65" cy="233.37" r="8.14" transform="translate(-61.42 328.29) rotate(-45)" style="fill:#322a55"/><circle cx="403.51" cy="219.91" r="8.14" style="fill:#322a55"/><circle cx="439.67" cy="233.37" r="8.14" transform="translate(-51.5 93.79) rotate(-13.28)" style="fill:#322a55"/><path d="M466.19,241.52a8.15,8.15,0,1,0-8.15-8.15A8.15,8.15,0,0,0,466.19,241.52Z" transform="translate(-9.65 -13.47)" style="fill:#322a55"/><path d="M492.7,241.52a8.15,8.15,0,1,0-8.14-8.15A8.15,8.15,0,0,0,492.7,241.52Z" transform="translate(-9.65 -13.47)" style="fill:#322a55"/><path d="M519.21,241.52a8.15,8.15,0,1,0-8.14-8.15A8.15,8.15,0,0,0,519.21,241.52Z" transform="translate(-9.65 -13.47)" style="fill:#322a55"/><circle cx="545.72" cy="233.37" r="8.14" transform="translate(-39.98 76.96) rotate(-9.22)" style="fill:#322a55"/><circle cx="572.23" cy="233.37" r="8.14" transform="translate(-55.4 223.28) rotate(-22.5)" style="fill:#322a55"/><path d="M606.88,233.37a8.14,8.14,0,1,0-8.14,8.15A8.14,8.14,0,0,0,606.88,233.37Z" transform="translate(-9.65 -13.47)" style="fill:#322a55"/><path d="M633.4,233.37a8.15,8.15,0,1,0-8.15,8.15A8.15,8.15,0,0,0,633.4,233.37Z" transform="translate(-9.65 -13.47)" style="fill:#322a55"/><circle cx="399.91" cy="255.14" r="8.14" transform="translate(1.5 513.5) rotate(-67.5)" style="fill:#322a55"/><circle cx="426.42" cy="255.14" r="8.14" transform="translate(-65.17 362.78) rotate(-45)" style="fill:#322a55"/><circle cx="452.93" cy="255.14" r="8.14" transform="translate(-57.4 381.53) rotate(-45)" style="fill:#322a55"/><circle cx="479.44" cy="255.14" r="8.14" transform="translate(50.6 586.98) rotate(-67.5)" style="fill:#322a55"/><circle cx="505.95" cy="255.14" r="8.14" transform="translate(66.96 611.47) rotate(-67.5)" style="fill:#322a55"/><path d="M532.46,263.28a8.14,8.14,0,1,0-8.14-8.14A8.13,8.13,0,0,0,532.46,263.28Z" transform="translate(-9.65 -13.47)" style="fill:#322a55"/><path d="M559,263.28a8.14,8.14,0,1,0-8.15-8.14A8.14,8.14,0,0,0,559,263.28Z" transform="translate(-9.65 -13.47)" style="fill:#322a55"/><circle cx="575.84" cy="241.67" r="8.14" style="fill:#322a55"/><circle cx="602.35" cy="241.67" r="8.14" style="fill:#322a55"/><circle cx="628.86" cy="241.67" r="8.14" style="fill:#322a55"/><circle cx="403.51" cy="265.6" r="8.14" style="fill:#322a55"/><circle cx="430.03" cy="265.6" r="8.14" style="fill:#322a55"/><path d="M466.19,287.21a8.14,8.14,0,1,0-8.15-8.14A8.14,8.14,0,0,0,466.19,287.21Z" transform="translate(-9.65 -13.47)" style="fill:#322a55"/><path d="M492.7,287.21a8.14,8.14,0,1,0-8.14-8.14A8.14,8.14,0,0,0,492.7,287.21Z" transform="translate(-9.65 -13.47)" style="fill:#322a55"/><path d="M519.21,287.21a8.14,8.14,0,1,0-8.14-8.14A8.14,8.14,0,0,0,519.21,287.21Z" transform="translate(-9.65 -13.47)" style="fill:#322a55"/><circle cx="536.07" cy="265.6" r="8.14" style="fill:#322a55"/><circle cx="562.58" cy="265.6" r="8.14" style="fill:#322a55"/><path d="M606.88,279.07a8.14,8.14,0,1,0-8.14,8.14A8.13,8.13,0,0,0,606.88,279.07Z" transform="translate(-9.65 -13.47)" style="fill:#322a55"/><path d="M625.25,287.21a8.14,8.14,0,1,0-8.14-8.14A8.14,8.14,0,0,0,625.25,287.21Z" transform="translate(-9.65 -13.47)" style="fill:#322a55"/><circle cx="642.12" cy="265.6" r="8.14" style="fill:#322a55"/><circle cx="452.93" cy="300.56" r="8.14" transform="translate(-66.59 98.63) rotate(-13.28)" style="fill:#322a55"/><circle cx="479.44" cy="300.56" r="8.14" transform="translate(8.64 615.02) rotate(-67.5)" style="fill:#322a55"/><circle cx="505.95" cy="300.56" r="8.14" transform="translate(25.01 639.51) rotate(-67.5)" style="fill:#322a55"/><path d="M532.46,308.7a8.14,8.14,0,1,0-8.14-8.14A8.14,8.14,0,0,0,532.46,308.7Z" transform="translate(-9.65 -13.47)" style="fill:#322a55"/><path d="M559,308.7a8.14,8.14,0,1,0-8.15-8.14A8.15,8.15,0,0,0,559,308.7Z" transform="translate(-9.65 -13.47)" style="fill:#322a55"/><circle cx="575.84" cy="287.09" r="8.14" style="fill:#322a55"/><circle cx="638.51" cy="300.56" r="8.14" transform="translate(-49.55 92.69) rotate(-9.22)" style="fill:#322a55"/><circle cx="665.02" cy="300.56" r="8.14" transform="translate(-74.04 263.9) rotate(-22.5)" style="fill:#322a55"/><path d="M699.67,300.56a8.14,8.14,0,1,0-8.14,8.14A8.13,8.13,0,0,0,699.67,300.56Z" transform="translate(-9.65 -13.47)" style="fill:#322a55"/><path d="M466.19,315.3a8.14,8.14,0,1,0,8.14,8.14A8.15,8.15,0,0,0,466.19,315.3Z" transform="translate(-9.65 -13.47)" style="fill:#322a55"/><path d="M492.7,315.3a8.14,8.14,0,1,0,8.14,8.14A8.14,8.14,0,0,0,492.7,315.3Z" transform="translate(-9.65 -13.47)" style="fill:#322a55"/><circle cx="519.21" cy="323.44" r="8.14" transform="translate(-38.99 39.27) rotate(-5.65)" style="fill:#322a55"/><circle cx="545.72" cy="323.44" r="8.14" transform="translate(28.41 690.38) rotate(-67.5)" style="fill:#322a55"/><circle cx="572.23" cy="323.44" r="8.14" transform="translate(-89.87 230.13) rotate(-22.5)" style="fill:#322a55"/><path d="M530.93,336.79a8.14,8.14,0,1,0,8.14,8.14A8.13,8.13,0,0,0,530.93,336.79Z" transform="translate(-9.65 -13.47)" style="fill:#322a55"/><path d="M557.44,336.79a8.14,8.14,0,1,0,8.14,8.14A8.13,8.13,0,0,0,557.44,336.79Z" transform="translate(-9.65 -13.47)" style="fill:#322a55"/><path d="M592.09,344.93a8.14,8.14,0,1,0-8.14,8.14A8.13,8.13,0,0,0,592.09,344.93Z" transform="translate(-9.65 -13.47)" style="fill:#322a55"/><path d="M610.46,353.07a8.14,8.14,0,1,0-8.14-8.14A8.13,8.13,0,0,0,610.46,353.07Z" transform="translate(-9.65 -13.47)" style="fill:#322a55"/><circle cx="665.98" cy="354.62" r="8.14" style="fill:#322a55"/><path d="M702.14,376.23a8.14,8.14,0,1,0-8.14-8.14A8.14,8.14,0,0,0,702.14,376.23Z" transform="translate(-9.65 -13.47)" style="fill:#322a55"/><path d="M728.65,376.23a8.14,8.14,0,1,0-8.14-8.14A8.13,8.13,0,0,0,728.65,376.23Z" transform="translate(-9.65 -13.47)" style="fill:#322a55"/><path d="M763.3,368.09a8.14,8.14,0,1,0-8.14,8.14A8.14,8.14,0,0,0,763.3,368.09Z" transform="translate(-9.65 -13.47)" style="fill:#322a55"/><circle cx="609.77" cy="391.26" r="8.14" transform="translate(-64.45 89.26) rotate(-9.22)" style="fill:#322a55"/><path d="M636.28,399.4a8.15,8.15,0,1,0-8.14-8.14A8.15,8.15,0,0,0,636.28,399.4Z" transform="translate(-9.65 -13.47)" style="fill:#322a55"/><path d="M670.93,391.26a8.14,8.14,0,1,0-8.14,8.14A8.14,8.14,0,0,0,670.93,391.26Z" transform="translate(-9.65 -13.47)" style="fill:#322a55"/><path d="M697.44,391.26a8.14,8.14,0,1,0-8.14,8.14A8.14,8.14,0,0,0,697.44,391.26Z" transform="translate(-9.65 -13.47)" style="fill:#322a55"/><circle cx="714.98" cy="391.26" r="8.14" transform="translate(-104.95 289.92) rotate(-22.5)" style="fill:#322a55"/><path d="M749.63,391.26a8.14,8.14,0,1,0-8.14,8.14A8.15,8.15,0,0,0,749.63,391.26Z" transform="translate(-9.65 -13.47)" style="fill:#322a55"/><path d="M768,383.11a8.15,8.15,0,1,0,8.14,8.15A8.14,8.14,0,0,0,768,383.11Z" transform="translate(-9.65 -13.47)" style="fill:#322a55"/><circle cx="639.89" cy="399.27" r="8.14" style="fill:#322a55"/><circle cx="666.4" cy="399.27" r="8.14" style="fill:#322a55"/><circle cx="692.91" cy="399.27" r="8.14" style="fill:#322a55"/><path d="M729.07,420.88a8.14,8.14,0,1,0-8.14-8.14A8.14,8.14,0,0,0,729.07,420.88Z" transform="translate(-9.65 -13.47)" style="fill:#322a55"/><circle cx="745.09" cy="399.27" r="8.14" style="fill:#322a55"/><path d="M773.11,412.74a8.14,8.14,0,0,0,8.14,8.14h0V404.6h0A8.15,8.15,0,0,0,773.11,412.74Z" transform="translate(-9.65 -13.47)" style="fill:#322a55"/><path d="M635.86,444.33a8.15,8.15,0,1,0-8.14-8.14A8.14,8.14,0,0,0,635.86,444.33Z" transform="translate(-9.65 -13.47)" style="fill:#322a55"/><path d="M670.51,436.19a8.14,8.14,0,1,0-8.14,8.14A8.14,8.14,0,0,0,670.51,436.19Z" transform="translate(-9.65 -13.47)" style="fill:#322a55"/><circle cx="688.88" cy="436.19" r="8.14" transform="translate(-49.28 56.53) rotate(-5.65)" style="fill:#322a55"/><circle cx="715.39" cy="436.19" r="8.14" transform="translate(28.99 916.73) rotate(-67.5)" style="fill:#322a55"/><path d="M749.21,436.19a8.14,8.14,0,1,0-8.14,8.14A8.15,8.15,0,0,0,749.21,436.19Z" transform="translate(-9.65 -13.47)" style="fill:#322a55"/><circle cx="767.58" cy="436.19" r="8.14" transform="translate(-118.14 313.47) rotate(-22.5)" style="fill:#322a55"/><path d="M623.44,467.77a8.14,8.14,0,1,0-8.14-8.14A8.14,8.14,0,0,0,623.44,467.77Z" transform="translate(-9.65 -13.47)" style="fill:#322a55"/><path d="M650,467.77a8.14,8.14,0,1,0-8.14-8.14A8.14,8.14,0,0,0,650,467.77Z" transform="translate(-9.65 -13.47)" style="fill:#322a55"/><circle cx="666.82" cy="446.16" r="8.14" style="fill:#322a55"/><circle cx="693.33" cy="446.16" r="8.14" style="fill:#322a55"/><path d="M728.65,467.77a8.14,8.14,0,1,0-8.14-8.14A8.14,8.14,0,0,0,728.65,467.77Z" transform="translate(-9.65 -13.47)" style="fill:#322a55"/><path d="M755.16,467.77a8.14,8.14,0,1,0-8.14-8.14A8.14,8.14,0,0,0,755.16,467.77Z" transform="translate(-9.65 -13.47)" style="fill:#322a55"/><path d="M773.53,459.63a8.13,8.13,0,0,0,7.74,8.12V451.51A8.13,8.13,0,0,0,773.53,459.63Z" transform="translate(-9.65 -13.47)" style="fill:#322a55"/><path d="M781.27,495a8.13,8.13,0,0,0-.2,16.23,18.49,18.49,0,0,0,.2-2.6Z" transform="translate(-9.65 -13.47)" style="fill:#322a55"/><path d="M636.28,473.25a8.15,8.15,0,1,0,8.14,8.14A8.14,8.14,0,0,0,636.28,473.25Z" transform="translate(-9.65 -13.47)" style="fill:#322a55"/><path d="M662.79,473.25a8.15,8.15,0,1,0,8.14,8.14A8.14,8.14,0,0,0,662.79,473.25Z" transform="translate(-9.65 -13.47)" style="fill:#322a55"/><path d="M689.3,473.25a8.15,8.15,0,1,0,8.14,8.14A8.14,8.14,0,0,0,689.3,473.25Z" transform="translate(-9.65 -13.47)" style="fill:#322a55"/><circle cx="715.81" cy="481.39" r="8.14" transform="translate(-53.6 59.41) rotate(-5.65)" style="fill:#322a55"/><path d="M741.49,473.25a8.15,8.15,0,1,0,8.14,8.14A8.14,8.14,0,0,0,741.49,473.25Z" transform="translate(-9.65 -13.47)" style="fill:#322a55"/><path d="M776.14,481.39a8.14,8.14,0,1,0-8.14,8.15A8.15,8.15,0,0,0,776.14,481.39Z" transform="translate(-9.65 -13.47)" style="fill:#322a55"/><circle cx="614.21" cy="489.69" r="8.14" style="fill:#322a55"/><path d="M650.37,495a8.14,8.14,0,1,0,8.14,8.14A8.14,8.14,0,0,0,650.37,495Z" transform="translate(-9.65 -13.47)" style="fill:#322a55"/><path d="M676.88,495a8.14,8.14,0,1,0,8.14,8.14A8.15,8.15,0,0,0,676.88,495Z" transform="translate(-9.65 -13.47)" style="fill:#322a55"/><path d="M703.39,495a8.14,8.14,0,1,0,8.14,8.14A8.15,8.15,0,0,0,703.39,495Z" transform="translate(-9.65 -13.47)" style="fill:#322a55"/><path d="M729.07,495a8.14,8.14,0,1,0,8.14,8.14A8.14,8.14,0,0,0,729.07,495Z" transform="translate(-9.65 -13.47)" style="fill:#322a55"/><path d="M755.58,495a8.14,8.14,0,1,0,8.14,8.14A8.14,8.14,0,0,0,755.58,495Z" transform="translate(-9.65 -13.47)" style="fill:#322a55"/><circle cx="587.42" cy="354.62" r="8.14" style="fill:#322a55"/><circle cx="651.77" cy="323.44" r="8.14" transform="translate(-83.81 260.57) rotate(-22.5)" style="fill:#322a55"/><circle cx="678.28" cy="323.44" r="8.14" transform="translate(110.24 812.84) rotate(-67.5)" style="fill:#322a55"/><circle cx="704.79" cy="323.44" r="8.14" transform="translate(126.61 837.34) rotate(-67.5)" style="fill:#322a55"/><path d="M723.16,323.44a8.14,8.14,0,1,0,8.14-8.14A8.13,8.13,0,0,0,723.16,323.44Z" transform="translate(-9.65 -13.47)" style="fill:#322a55"/><path d="M759.86,345.77a8.14,8.14,0,1,0,8.14-8.14A8.14,8.14,0,0,0,759.86,345.77Z" transform="translate(-9.65 -13.47)" style="fill:#322a55"/></svg>