<?xml version="1.0" encoding="utf-8"?>
<!-- Generator: Adobe Illustrator 25.3.1, SVG Export Plug-In . SVG Version: 6.00 Build 0)  -->
<svg version="1.1" id="Capa_1" xmlns="http://www.w3.org/2000/svg" xmlns:xlink="http://www.w3.org/1999/xlink" x="0px" y="0px"
	 viewBox="0 0 22.8 22.8" style="enable-background:new 0 0 22.8 22.8;" xml:space="preserve">
<style type="text/css">
	.st0{fill:#FFFFFF;}
</style>
<g>
	<g>
		<path class="st0" d="M15.8,0c0.1,0,0.1,0,0.2,0c0.1,1.6-0.5,2.8-1.2,3.7C14,4.5,13,5.4,11.4,5.2c-0.1-1.6,0.5-2.7,1.2-3.6
			C13.3,0.9,14.6,0.2,15.8,0z"/>
		<path class="st0" d="M20.7,16.7C20.7,16.7,20.7,16.7,20.7,16.7c-0.5,1.4-1.1,2.6-1.9,3.7c-0.7,1-1.6,2.3-3.2,2.3
			c-1.4,0-2.3-0.9-3.7-0.9c-1.5,0-2.3,0.7-3.7,0.9c-0.2,0-0.3,0-0.5,0c-1-0.1-1.8-0.9-2.4-1.6c-1.7-2.1-3.1-4.8-3.3-8.3
			c0-0.3,0-0.7,0-1C2.2,9.4,3.4,7.3,5,6.4c0.8-0.5,2-1,3.3-0.8c0.6,0.1,1.1,0.3,1.6,0.5c0.5,0.2,1.1,0.5,1.6,0.5
			c0.4,0,0.8-0.2,1.1-0.3c1.1-0.4,2.2-0.9,3.7-0.6c1.7,0.3,3,1,3.7,2.2c-1.5,0.9-2.6,2.3-2.4,4.7C17.8,14.7,19.1,16,20.7,16.7z"/>
	</g>
</g>
</svg>
