<?xml version="1.0" encoding="utf-8"?>
<!-- Generator: Adobe Illustrator 25.3.1, SVG Export Plug-In . SVG Version: 6.00 Build 0)  -->
<svg version="1.1" id="Capa_1" xmlns="http://www.w3.org/2000/svg" xmlns:xlink="http://www.w3.org/1999/xlink" x="0px" y="0px"
	 viewBox="0 0 210 210" style="enable-background:new 0 0 210 210;" xml:space="preserve">
<style type="text/css">
	.st0{fill:#FFFFFF;}
</style>
<path class="st0" d="M190.3,90L36.8,2.3C34.1,0.8,31.2,0,28.2,0c-0.1,0-0.1,0-0.2,0c-0.4,0-0.8,0-1.2,0.1c-0.2,0-0.4,0-0.5,0.1
	c-0.3,0-0.6,0.1-0.9,0.1c-0.1,0-0.2,0-0.3,0l0,0c-1.9,0.4-3.8,1-5.5,2C14.3,5.4,11,11.1,11,17.2v175.5c0,6.1,3.3,11.8,8.6,14.9
	c1.7,1,3.6,1.7,5.5,2l0,0c0.1,0,0.2,0,0.3,0c0.3,0.1,0.7,0.1,1,0.1c0.2,0,0.3,0,0.5,0c0.4,0,0.8,0,1.2,0.1c0.1,0,0.1,0,0.2,0
	c2.9,0,5.9-0.8,8.5-2.3L190.3,120c5.4-3.1,8.7-8.8,8.7-15c0,0,0,0,0,0c0,0,0,0,0,0c0,0,0,0,0,0c0,0,0,0,0,0
	C199,98.8,195.7,93.1,190.3,90z M129.6,72.6l-15.3,20l-38.8-51L129.6,72.6z M182.9,106.9L75.5,168.3l67.2-88.2l40.1,22.9
	c0.7,0.4,1.1,1.1,1.1,1.9C184,105.8,183.6,106.6,182.9,106.9z"/>
</svg>
